PathFileType        4      (X/Y/Z)      C:\Users\u0101727\OneDrive - KU Leuven\reference_data\TRC\gait_64.trc         																																																																																																																																																																																		
DataRate	CameraRate	NumFrames	NumMarkers	Units	OrigDataRate	OrigDataStartFrame	OrigNumFrames																																																																																																																																																																											
100	100	11	59	m	100	386	441																																																																																																																																																																											
Frame#	Time	LPSI			RPSI			LKNE			LTHI1			LTHI2			LTHI3			LTIB1			LTIB2			LTIB3			foot_l1			foot_l2			foot_l5			foot_l6			RANK_med			Foot_r10			RSHO			LSHO			hum_l2			LELB			rad_l2			LW2			LH			hum_r2			RELB			rad_r2			foot_l9			LANK_med			Foot_r1			foot_l7			LANK			foot_l3			RTIB3			Foot_r2			Foot_r5			Foot_r9			RW2			RTIB2			LW1			RKNE			Foot_r4			Foot_r7			RH			Foot_r6			foot_l10			RTIB1			RANK			RTHI1			RTHI3			RW1			Foot_r8			RASI			foot_l4			CLAV			Foot_r3			LASI			LKNE_med			RKNE_med			RTHI2			foot_l8		
		X1	Y1	Z1	X2	Y2	Z2	X3	Y3	Z3	X4	Y4	Z4	X5	Y5	Z5	X6	Y6	Z6	X7	Y7	Z7	X8	Y8	Z8	X9	Y9	Z9	X10	Y10	Z10	X11	Y11	Z11	X12	Y12	Z12	X13	Y13	Z13	X14	Y14	Z14	X15	Y15	Z15	X16	Y16	Z16	X17	Y17	Z17	X18	Y18	Z18	X19	Y19	Z19	X20	Y20	Z20	X21	Y21	Z21	X22	Y22	Z22	X23	Y23	Z23	X24	Y24	Z24	X25	Y25	Z25	X26	Y26	Z26	X27	Y27	Z27	X28	Y28	Z28	X29	Y29	Z29	X30	Y30	Z30	X31	Y31	Z31	X32	Y32	Z32	X33	Y33	Z33	X34	Y34	Z34	X35	Y35	Z35	X36	Y36	Z36	X37	Y37	Z37	X38	Y38	Z38	X39	Y39	Z39	X40	Y40	Z40	X41	Y41	Z41	X42	Y42	Z42	X43	Y43	Z43	X44	Y44	Z44	X45	Y45	Z45	X46	Y46	Z46	X47	Y47	Z47	X48	Y48	Z48	X49	Y49	Z49	X50	Y50	Z50	X51	Y51	Z51	X52	Y52	Z52	X53	Y53	Z53	X54	Y54	Z54	X55	Y55	Z55	X56	Y56	Z56	X57	Y57	Z57	X58	Y58	Z58	X59	Y59	Z59
386	3.86	2.8735	0.93616	0.4808	NaN	NaN	NaN	NaN	NaN	NaN	NaN	NaN	NaN	NaN	NaN	NaN	NaN	NaN	NaN	NaN	NaN	NaN	2.7844	0.32882	0.32344	NaN	NaN	NaN	2.5947	0.23542	0.36712	2.564	0.22458	0.36312	NaN	NaN	NaN	NaN	NaN	NaN	3.0945	0.085214	0.55477	3.103	0.053243	0.55702	2.9003	1.3598	0.6771	2.9534	1.3643	0.32994	NaN	NaN	NaN	2.94	1.0352	0.27006	3.036	0.95977	0.2554	3.0772	0.84481	0.24252	NaN	NaN	NaN	2.8677	1.2089	0.70673	2.8323	1.0618	0.71737	2.8693	0.9242	0.78524	NaN	NaN	NaN	2.6417	0.19729	0.41587	NaN	NaN	NaN	NaN	NaN	NaN	2.6421	0.1903	0.33145	NaN	NaN	NaN	NaN	NaN	NaN	3.0207	0.028194	0.59054	3.173	0.020489	0.67608	NaN	NaN	NaN	2.8528	0.84469	0.80509	3.0398	0.26961	0.67803	NaN	NaN	NaN	NaN	NaN	NaN	NaN	NaN	NaN	NaN	NaN	NaN	2.8971	0.7948	0.82907	NaN	NaN	NaN	NaN	NaN	NaN	NaN	NaN	NaN	3.0687	0.063341	0.63522	NaN	NaN	NaN	NaN	NaN	NaN	NaN	NaN	NaN	NaN	NaN	NaN	NaN	NaN	NaN	NaN	NaN	NaN	NaN	NaN	NaN	NaN	NaN	NaN	NaN	NaN	NaN	NaN	NaN	NaN	NaN	NaN	NaN	NaN	NaN	NaN	NaN	NaN	NaN
387	3.87	2.8844	0.93723	0.48349	NaN	NaN	NaN	NaN	NaN	NaN	NaN	NaN	NaN	NaN	NaN	NaN	NaN	NaN	NaN	NaN	NaN	NaN	2.8091	0.33077	0.32846	NaN	NaN	NaN	2.6148	0.24298	0.37259	2.5844	0.23149	0.36888	NaN	NaN	NaN	NaN	NaN	NaN	3.0946	0.085272	0.55482	3.1029	0.053199	0.55699	2.9136	1.3612	0.68035	2.9639	1.3658	0.33252	NaN	NaN	NaN	2.9487	1.0367	0.27342	3.0427	0.95899	0.25737	3.0807	0.84303	0.24384	NaN	NaN	NaN	2.882	1.2101	0.71041	2.8478	1.063	0.72207	2.8884	0.92573	0.78917	NaN	NaN	NaN	2.6621	0.20445	0.42081	NaN	NaN	NaN	NaN	NaN	NaN	2.6608	0.19875	0.33607	NaN	NaN	NaN	NaN	NaN	NaN	3.0201	0.028911	0.59051	3.1728	0.020366	0.67613	NaN	NaN	NaN	2.8741	0.84564	0.80986	3.043	0.2698	0.67763	NaN	NaN	NaN	NaN	NaN	NaN	NaN	NaN	NaN	NaN	NaN	NaN	NaN	NaN	NaN	NaN	NaN	NaN	NaN	NaN	NaN	NaN	NaN	NaN	3.0686	0.063552	0.63511	NaN	NaN	NaN	NaN	NaN	NaN	NaN	NaN	NaN	NaN	NaN	NaN	NaN	NaN	NaN	NaN	NaN	NaN	NaN	NaN	NaN	NaN	NaN	NaN	NaN	NaN	NaN	NaN	NaN	NaN	NaN	NaN	NaN	NaN	NaN	NaN	NaN	NaN	NaN
388	3.88	2.8948	0.93856	0.48609	NaN	NaN	NaN	NaN	NaN	NaN	NaN	NaN	NaN	NaN	NaN	NaN	NaN	NaN	NaN	NaN	NaN	NaN	2.8339	0.33181	0.33303	NaN	NaN	NaN	2.636	0.24888	0.37819	2.6059	0.23741	0.37428	NaN	NaN	NaN	NaN	NaN	NaN	3.0946	0.085097	0.55479	3.1029	0.053066	0.55691	2.927	1.3628	0.68346	2.974	1.3675	0.33498	NaN	NaN	NaN	2.9573	1.0385	0.27666	3.0487	0.95837	0.25927	3.0837	0.84159	0.24479	NaN	NaN	NaN	2.8958	1.2114	0.71439	2.8648	1.0637	0.72755	2.9084	0.92747	0.79291	NaN	NaN	NaN	2.6843	0.20943	0.42627	NaN	NaN	NaN	NaN	NaN	NaN	2.6821	0.20535	0.34169	NaN	NaN	NaN	NaN	NaN	NaN	3.0202	0.028913	0.59057	3.1729	0.020551	0.67614	NaN	NaN	NaN	2.8948	0.84724	0.81395	3.0447	0.27014	0.67702	NaN	NaN	NaN	NaN	NaN	NaN	NaN	NaN	NaN	NaN	NaN	NaN	NaN	NaN	NaN	NaN	NaN	NaN	NaN	NaN	NaN	NaN	NaN	NaN	3.0685	0.063657	0.63495	NaN	NaN	NaN	NaN	NaN	NaN	NaN	NaN	NaN	NaN	NaN	NaN	NaN	NaN	NaN	NaN	NaN	NaN	NaN	NaN	NaN	NaN	NaN	NaN	NaN	NaN	NaN	NaN	NaN	NaN	NaN	NaN	NaN	NaN	NaN	NaN	NaN	NaN	NaN
389	3.89	2.906	0.94	0.48898	NaN	NaN	NaN	NaN	NaN	NaN	NaN	NaN	NaN	NaN	NaN	NaN	NaN	NaN	NaN	NaN	NaN	NaN	2.8588	0.33394	0.33832	NaN	NaN	NaN	2.6587	0.25314	0.384	2.6287	0.24135	0.37954	NaN	NaN	NaN	NaN	NaN	NaN	3.095	0.085151	0.55457	3.103	0.052839	0.55672	2.9405	1.3647	0.68635	2.984	1.3689	0.33741	NaN	NaN	NaN	NaN	NaN	NaN	3.0549	0.95811	0.26101	3.0862	0.84059	0.24577	NaN	NaN	NaN	2.9125	1.2133	0.71792	2.8802	1.0649	0.73246	2.9273	0.92927	0.79693	NaN	NaN	NaN	2.7062	0.21512	0.43236	NaN	NaN	NaN	NaN	NaN	NaN	2.7072	0.20938	0.35054	NaN	NaN	NaN	NaN	NaN	NaN	3.0202	0.02911	0.59047	3.1728	0.020647	0.67607	NaN	NaN	NaN	2.9164	0.84884	0.81849	3.0455	0.27079	0.67623	NaN	NaN	NaN	NaN	NaN	NaN	NaN	NaN	NaN	NaN	NaN	NaN	NaN	NaN	NaN	NaN	NaN	NaN	NaN	NaN	NaN	NaN	NaN	NaN	3.0684	0.06363	0.63471	NaN	NaN	NaN	NaN	NaN	NaN	NaN	NaN	NaN	NaN	NaN	NaN	NaN	NaN	NaN	NaN	NaN	NaN	NaN	NaN	NaN	NaN	NaN	NaN	NaN	NaN	NaN	NaN	NaN	NaN	NaN	NaN	NaN	NaN	NaN	NaN	NaN	NaN	NaN
390	3.9	2.9165	0.9414	0.49187	NaN	NaN	NaN	NaN	NaN	NaN	NaN	NaN	NaN	NaN	NaN	NaN	NaN	NaN	NaN	NaN	NaN	NaN	2.8831	0.33564	0.34484	NaN	NaN	NaN	2.6819	0.25514	0.39008	2.6517	0.24407	0.38551	NaN	NaN	NaN	NaN	NaN	NaN	3.0953	0.08501	0.55434	3.1031	0.052676	0.55652	2.9537	1.3666	0.68918	2.9939	1.3708	0.33962	NaN	NaN	NaN	NaN	NaN	NaN	3.0611	0.95799	0.26285	3.0883	0.83939	0.24657	NaN	NaN	NaN	2.9272	1.2151	0.72149	2.8959	1.067	0.73721	2.9467	0.93121	0.8006	NaN	NaN	NaN	2.7303	0.21843	0.43889	NaN	NaN	NaN	NaN	NaN	NaN	2.7319	0.21185	0.3566	NaN	NaN	NaN	NaN	NaN	NaN	3.0202	0.029296	0.59045	3.1727	0.020639	0.67608	NaN	NaN	NaN	2.9379	0.85082	0.82235	3.0469	0.27079	0.67601	NaN	NaN	NaN	NaN	NaN	NaN	NaN	NaN	NaN	NaN	NaN	NaN	NaN	NaN	NaN	NaN	NaN	NaN	NaN	NaN	NaN	NaN	NaN	NaN	3.0687	0.063899	0.63447	NaN	NaN	NaN	NaN	NaN	NaN	NaN	NaN	NaN	NaN	NaN	NaN	NaN	NaN	NaN	NaN	NaN	NaN	NaN	NaN	NaN	NaN	NaN	NaN	NaN	NaN	NaN	NaN	NaN	NaN	NaN	NaN	NaN	NaN	NaN	NaN	NaN	NaN	NaN
391	3.91	2.9269	0.94338	0.49443	NaN	NaN	NaN	NaN	NaN	NaN	NaN	NaN	NaN	NaN	NaN	NaN	NaN	NaN	NaN	NaN	NaN	NaN	2.908	0.33724	0.35114	NaN	NaN	NaN	2.7057	0.25611	0.39602	2.6762	0.24322	0.39154	NaN	NaN	NaN	NaN	NaN	NaN	3.0956	0.08501	0.55417	3.1031	0.052469	0.55632	2.9671	1.3687	0.69187	3.0038	1.3725	0.34182	NaN	NaN	NaN	NaN	NaN	NaN	NaN	NaN	NaN	3.0905	0.83881	0.24719	NaN	NaN	NaN	2.9415	1.2171	0.72494	2.9129	1.0685	0.74244	2.9667	0.9336	0.8042	NaN	NaN	NaN	2.7564	0.21884	0.44526	NaN	NaN	NaN	NaN	NaN	NaN	2.7552	0.21401	0.36061	NaN	NaN	NaN	NaN	NaN	NaN	3.0202	0.029496	0.59033	3.1726	0.020571	0.67598	NaN	NaN	NaN	2.9594	0.85317	0.8262	3.0482	0.2709	0.67556	NaN	NaN	NaN	NaN	NaN	NaN	NaN	NaN	NaN	NaN	NaN	NaN	NaN	NaN	NaN	NaN	NaN	NaN	NaN	NaN	NaN	NaN	NaN	NaN	3.0688	0.064017	0.63419	NaN	NaN	NaN	NaN	NaN	NaN	NaN	NaN	NaN	NaN	NaN	NaN	NaN	NaN	NaN	NaN	NaN	NaN	NaN	NaN	NaN	NaN	NaN	NaN	NaN	NaN	NaN	NaN	NaN	NaN	NaN	NaN	NaN	NaN	NaN	NaN	NaN	NaN	NaN
392	3.92	2.9372	0.946	0.4972	NaN	NaN	NaN	NaN	NaN	NaN	NaN	NaN	NaN	NaN	NaN	NaN	NaN	NaN	NaN	NaN	NaN	NaN	2.9329	0.3382	0.3577	NaN	NaN	NaN	2.7301	0.25451	0.40209	2.7007	0.24036	0.39754	NaN	NaN	NaN	NaN	NaN	NaN	3.0957	0.084778	0.5539	3.1031	0.052282	0.55612	2.9803	1.3709	0.69451	3.0131	1.3741	0.34387	NaN	NaN	NaN	NaN	NaN	NaN	NaN	NaN	NaN	3.0928	0.83874	0.24778	NaN	NaN	NaN	2.956	1.2191	0.72835	2.9301	1.0701	0.7479	2.9867	0.93616	0.80752	NaN	NaN	NaN	2.776	0.22286	0.45253	NaN	NaN	NaN	NaN	NaN	NaN	2.7806	0.21483	0.36724	NaN	NaN	NaN	NaN	NaN	NaN	3.0203	0.029749	0.59013	3.1726	0.02057	0.67597	NaN	NaN	NaN	2.9809	0.85584	0.82948	3.0506	0.27066	0.67527	NaN	NaN	NaN	NaN	NaN	NaN	NaN	NaN	NaN	NaN	NaN	NaN	NaN	NaN	NaN	NaN	NaN	NaN	NaN	NaN	NaN	NaN	NaN	NaN	3.0691	0.064192	0.63402	NaN	NaN	NaN	NaN	NaN	NaN	NaN	NaN	NaN	NaN	NaN	NaN	NaN	NaN	NaN	NaN	NaN	NaN	NaN	NaN	NaN	NaN	NaN	NaN	NaN	NaN	NaN	NaN	NaN	NaN	NaN	NaN	NaN	NaN	NaN	NaN	NaN	NaN	NaN
393	3.93	2.9477	0.94828	0.49977	NaN	NaN	NaN	NaN	NaN	NaN	NaN	NaN	NaN	NaN	NaN	NaN	NaN	NaN	NaN	NaN	NaN	NaN	2.9581	0.33843	0.36369	NaN	NaN	NaN	2.7545	0.25146	0.40795	2.7256	0.23686	0.40311	NaN	NaN	NaN	NaN	NaN	NaN	3.0961	0.08473	0.55368	3.1026	0.052048	0.55611	2.9935	1.3732	0.69694	3.0227	1.376	0.34605	NaN	NaN	NaN	NaN	NaN	NaN	NaN	NaN	NaN	3.0946	0.83912	0.24821	NaN	NaN	NaN	2.9707	1.2212	0.73193	2.9451	1.0727	0.75119	3.0065	0.9389	0.81076	NaN	NaN	NaN	2.8021	0.22182	0.45902	NaN	NaN	NaN	NaN	NaN	NaN	2.8074	0.21246	0.37415	NaN	NaN	NaN	NaN	NaN	NaN	3.0201	0.030149	0.58994	3.1729	0.020773	0.67586	NaN	NaN	NaN	3.0033	0.8586	0.83311	3.0513	0.27115	0.67459	NaN	NaN	NaN	NaN	NaN	NaN	NaN	NaN	NaN	NaN	NaN	NaN	NaN	NaN	NaN	NaN	NaN	NaN	NaN	NaN	NaN	NaN	NaN	NaN	3.0695	0.064337	0.63381	NaN	NaN	NaN	NaN	NaN	NaN	NaN	NaN	NaN	NaN	NaN	NaN	NaN	NaN	NaN	NaN	NaN	NaN	NaN	NaN	NaN	NaN	NaN	NaN	NaN	NaN	NaN	NaN	NaN	NaN	NaN	NaN	NaN	NaN	NaN	NaN	NaN	NaN	NaN
394	3.94	2.9579	0.95071	0.50208	NaN	NaN	NaN	NaN	NaN	NaN	NaN	NaN	NaN	NaN	NaN	NaN	NaN	NaN	NaN	NaN	NaN	NaN	2.983	0.33843	0.3693	NaN	NaN	NaN	2.7801	0.24691	0.41403	2.7517	0.23096	0.40932	NaN	NaN	NaN	NaN	NaN	NaN	3.0959	0.084719	0.55381	3.103	0.052063	0.55592	3.0065	1.3756	0.69934	3.032	1.3775	0.34816	NaN	NaN	NaN	NaN	NaN	NaN	NaN	NaN	NaN	3.0966	0.83961	0.24896	NaN	NaN	NaN	2.9853	1.2234	0.73531	2.9626	1.0745	0.75652	3.0267	0.94193	0.81361	NaN	NaN	NaN	2.8291	0.21971	0.46541	NaN	NaN	NaN	NaN	NaN	NaN	2.8341	0.2089	0.38066	NaN	NaN	NaN	NaN	NaN	NaN	3.0219	0.029859	0.58967	3.1731	0.020892	0.67582	NaN	NaN	NaN	3.0254	0.86129	0.83686	3.0519	0.27201	0.67383	NaN	NaN	NaN	NaN	NaN	NaN	NaN	NaN	NaN	NaN	NaN	NaN	NaN	NaN	NaN	NaN	NaN	NaN	NaN	NaN	NaN	NaN	NaN	NaN	3.0693	0.064255	0.63343	NaN	NaN	NaN	NaN	NaN	NaN	NaN	NaN	NaN	NaN	NaN	NaN	NaN	NaN	NaN	NaN	NaN	NaN	NaN	NaN	NaN	NaN	NaN	NaN	NaN	NaN	NaN	NaN	NaN	NaN	NaN	NaN	NaN	NaN	NaN	NaN	NaN	NaN	NaN
395	3.95	2.9688	0.95262	0.50434	NaN	NaN	NaN	NaN	NaN	NaN	NaN	NaN	NaN	NaN	NaN	NaN	NaN	NaN	NaN	NaN	NaN	NaN	3.0077	0.3385	0.3746	NaN	NaN	NaN	2.8052	0.24066	0.42032	2.7782	0.2227	0.41554	NaN	NaN	NaN	NaN	NaN	NaN	3.0962	0.084803	0.55364	3.1029	0.05206	0.5558	3.0194	1.3779	0.70169	3.0414	1.3793	0.35017	NaN	NaN	NaN	NaN	NaN	NaN	NaN	NaN	NaN	3.0982	0.84012	0.24957	NaN	NaN	NaN	2.9998	1.2254	0.73878	2.9788	1.0772	0.76075	3.0475	0.94503	0.81647	NaN	NaN	NaN	2.8569	0.21589	0.47209	NaN	NaN	NaN	NaN	NaN	NaN	2.8618	0.2048	0.38747	NaN	NaN	NaN	NaN	NaN	NaN	3.0206	0.030344	0.58981	3.1727	0.020733	0.67585	NaN	NaN	NaN	3.0476	0.86449	0.83999	3.052	0.27287	0.67315	NaN	NaN	NaN	NaN	NaN	NaN	NaN	NaN	NaN	NaN	NaN	NaN	NaN	NaN	NaN	NaN	NaN	NaN	NaN	NaN	NaN	NaN	NaN	NaN	3.0705	0.064819	0.63331	NaN	NaN	NaN	NaN	NaN	NaN	NaN	NaN	NaN	NaN	NaN	NaN	NaN	NaN	NaN	NaN	NaN	NaN	NaN	NaN	NaN	NaN	NaN	NaN	NaN	NaN	NaN	NaN	NaN	NaN	NaN	NaN	NaN	NaN	NaN	NaN	NaN	NaN	NaN
396	3.96	2.9787	0.95512	0.50596	NaN	NaN	NaN	NaN	NaN	NaN	NaN	NaN	NaN	NaN	NaN	NaN	NaN	NaN	NaN	NaN	NaN	NaN	3.032	0.33805	0.37927	NaN	NaN	NaN	2.832	0.23291	0.42682	2.8049	0.21306	0.4223	NaN	NaN	NaN	NaN	NaN	NaN	3.0961	0.084792	0.55363	3.1027	0.052081	0.55574	3.0323	1.38	0.70402	3.0506	1.3808	0.35229	NaN	NaN	NaN	NaN	NaN	NaN	NaN	NaN	NaN	3.0994	0.84084	0.25014	NaN	NaN	NaN	3.0143	1.2276	0.74216	2.9947	1.0792	0.76518	3.0676	0.94828	0.8191	NaN	NaN	NaN	2.8878	0.2094	0.47945	NaN	NaN	NaN	NaN	NaN	NaN	2.89	0.19898	0.39405	NaN	NaN	NaN	NaN	NaN	NaN	3.021	0.030534	0.58972	3.1726	0.020654	0.6759	NaN	NaN	NaN	3.0703	0.86733	0.84303	3.0529	0.27284	0.67354	NaN	NaN	NaN	NaN	NaN	NaN	NaN	NaN	NaN	NaN	NaN	NaN	NaN	NaN	NaN	NaN	NaN	NaN	NaN	NaN	NaN	NaN	NaN	NaN	3.0705	0.06504	0.63331	NaN	NaN	NaN	NaN	NaN	NaN	NaN	NaN	NaN	NaN	NaN	NaN	NaN	NaN	NaN	NaN	NaN	NaN	NaN	NaN	NaN	NaN	NaN	NaN	NaN	NaN	NaN	NaN	NaN	NaN	NaN	NaN	NaN	NaN	NaN	NaN	NaN	NaN	NaN
